#!OML:ASF F:\VICON\USERDATA\INSTALL\rory3\rory3.ASF
:FULLY-SPECIFIED
:DEGREES
3579
root 15.1776 17.7801 -5.72102 720.334 -33.9733 4.11655
lowerback 11.1146 -5.31884 -5.59938
upperback 1.61851 -7.5657 5.11972
thorax -3.05536 -3.74503 9.5469
lowerneck 8.75761 -15.3985 -16.4002
upperneck 38.3934 -27.6962 7.82148
head 16.0329 -14.1352 2.35472
rclavicle 2.0276e-014 -5.40694e-014
rhumerus -47.9661 -30.7834 -52.2247
rradius 34.3549
rwrist 1.28514
rhand -17.6332 7.07878
rfingers 7.12502
rthumb 8.62434 -22.7251
lclavicle 2.0276e-014 -5.40694e-014
lhumerus -38.6797 8.3742 77.6684
lradius 43.589
lwrist -1.84237
lhand -18.6215 27.4289
lfingers 7.12502
lthumb 7.67046 57.2698
rfemur -9.96532 13.8597 19.7457
rtibia 36.7475
rfoot -20.0957 16.0372
rtoes 14.6288
lfemur -15.2962 -6.48603 -18.8944
ltibia 19.8865
lfoot -13.9 -23.3383
ltoes -25.5409
3580
root 15.1898 17.7754 -5.79205 720.521 -33.715 4.05302
lowerback 11.1216 -5.30915 -5.37442
upperback 1.50922 -7.52139 5.18941
thorax -3.20352 -3.71297 9.50133
lowerneck 8.74667 -15.6544 -16.2788
upperneck 38.322 -28.1256 7.94088
head 16.0817 -14.2828 2.30151
rclavicle -2.06736e-014 3.33958e-014
rhumerus -48.2224 -30.7534 -52.0646
rradius 34.4749
rwrist 0.821115
rhand -17.7396 7.01303
rfingers 7.12502
rthumb 8.52164 -22.795
lclavicle -2.06736e-014 3.33958e-014
lhumerus -38.5706 8.20313 77.7458
lradius 43.4981
lwrist -2.16869
lhand -17.5812 27.7515
lfingers 7.12502
lthumb 8.67451 57.5533
rfemur -9.64034 13.5691 19.9638
rtibia 35.5535
rfoot -20.4974 15.4721
rtoes 16.234
lfemur -15.8431 -6.13227 -18.7383
ltibia 20.1036
lfoot -13.1742 -24.0425
ltoes -23.7312
3581
root 15.2016 17.7692 -5.86588 720.761 -33.4459 3.75368
lowerback 11.2104 -5.375 -5.05961
upperback 1.42874 -7.5668 5.37429
thorax -3.34385 -3.73006 9.54687
lowerneck 8.71636 -15.7791 -16.4724
upperneck 38.2807 -28.4021 8.14095
head 16.2038 -14.3973 2.33722
rclavicle -1.11717e-013 1.59028e-014
rhumerus -48.2694 -30.6226 -51.965
rradius 34.6137
rwrist 0.463609
rhand -17.6972 6.81239
rfingers 7.12502
rthumb 8.56254 -22.994
lclavicle -1.11717e-013 1.59028e-014
lhumerus -38.4751 8.21945 77.8688
lradius 43.3861
lwrist -2.30746
lhand -16.9398 28.1044
lfingers 7.12502
lthumb 9.29347 57.8796
rfemur -9.36146 13.3025 20.4405
rtibia 34.6409
rfoot -20.8882 15.0116
rtoes 18.1178
lfemur -16.1811 -5.98725 -18.3435
ltibia 20.0586
lfoot -12.3976 -24.4662
ltoes -21.6219
3582
root 15.2125 17.7665 -5.94017 720.902 -33.189 4.03364
lowerback 11.0942 -5.46975 -5.25792
upperback 1.26242 -7.70921 5.4467
thorax -3.39099 -3.79152 9.75003
lowerneck 8.51511 -15.886 -16.5149
upperneck 38.3962 -28.5853 8.12251
head 16.3468 -14.4609 2.26763
rclavicle -4.96962e-014 -1.90833e-014
rhumerus -48.273 -30.5614 -51.8721
rradius 34.7063
rwrist 0.475266
rhand -17.3097 6.90671
rfingers 7.12502
rthumb 8.93651 -22.884
lclavicle -4.96962e-014 -1.90833e-014
lhumerus -38.545 8.20997 77.9497
lradius 43.451
lwrist -2.31153
lhand -16.2011 28.4974
lfingers 7.12502
lthumb 10.0062 58.2396
rfemur -9.33411 13.0551 20.2805
rtibia 33.6739
rfoot -21.3002 14.3388
rtoes 18.6122
lfemur -16.8029 -6.122 -18.4488
ltibia 20.1702
lfoot -11.7255 -24.3411
ltoes -20.0863
3583
root 15.2281 17.7373 -6.01938 721.075 -32.9406 4.11523
lowerback 11.1642 -5.60662 -5.34013
upperback 1.13227 -7.90003 5.50087
thorax -3.5099 -3.87539 9.89414
lowerneck 8.36319 -15.9229 -16.44
upperneck 38.3912 -28.6875 8.23526
head 16.4057 -14.4759 2.26449
rclavicle 3.97569e-014 -4.92986e-014
rhumerus -48.1646 -30.26 -52.2247
rradius 34.8598
rwrist 0.460027
rhand -17.0278 7.13114
rfingers 7.12502
rthumb 9.20848 -22.6478
lclavicle 3.97569e-014 -4.92986e-014
lhumerus -38.6243 8.2143 77.8486
lradius 43.528
lwrist -2.31226
lhand -15.5663 28.741
lfingers 7.12502
lthumb 10.6186 58.4527
rfemur -9.44172 12.9574 20.3174
rtibia 33.0246
rfoot -21.6383 13.3378
rtoes 18.0167
lfemur -17.1686 -6.42852 -18.2728
ltibia 20.0441
lfoot -11.1639 -23.8595
ltoes -18.1814
3584
root 15.2358 17.7901 -6.10184 721.255 -32.7018 4.06377
lowerback 11.3083 -5.79045 -5.36892
upperback 1.11795 -8.15217 5.52051
thorax -3.54597 -3.99905 9.97609
lowerneck 8.17791 -15.903 -16.3121
upperneck 38.3041 -28.7653 8.56213
head 16.4627 -14.4595 2.34324
rclavicle 1.59028e-014 -2.22639e-014
rhumerus -47.8333 -30.0238 -52.9027
rradius 35.0396
rwrist 0.470989
rhand -16.8855 7.23553
rfingers 7.12502
rthumb 9.34585 -22.5373
lclavicle 1.59028e-014 -2.22639e-014
lhumerus -38.5525 8.27299 77.5589
lradius 43.5609
lwrist -2.40193
lhand -14.9917 28.8736
lfingers 7.12502
lthumb 11.1728 58.5561
rfemur -9.53533 13.0516 20.495
rtibia 32.5728
rfoot -21.7324 12.4943
rtoes 17.3106
lfemur -17.525 -6.11564 -18.1835
ltibia 19.7985
lfoot -10.5986 -24.0642
ltoes -15.6059
3585
root 15.2484 17.784 -6.18456 721.433 -32.4665 4.00666
lowerback 11.4156 -5.88191 -5.3618
upperback 1.09364 -8.27412 5.57534
thorax -3.59837 -4.05683 10.0607
lowerneck 7.90696 -16.0387 -16.0316
upperneck 38.374 -28.9683 8.55356
head 16.5364 -14.489 2.23503
rclavicle -1.59028e-015 -4.77083e-015
rhumerus -47.6412 -30.0358 -53.2529
rradius 35.1852
rwrist 0.421796
rhand -17.0056 7.25125
rfingers 7.12502
rthumb 9.22993 -22.5267
lclavicle -1.59028e-015 -4.77083e-015
lhumerus -38.4313 8.25984 77.4369
lradius 43.611
lwrist -2.64571
lhand -14.2015 29.4478
lfingers 7.12502
lthumb 11.9348 59.0876
rfemur -9.82562 13.3354 20.6758
rtibia 32.4111
rfoot -21.5167 11.838
rtoes 16.588
lfemur -17.886 -6.23651 -17.9868
ltibia 19.7073
lfoot -10.3994 -23.5016
ltoes -15.3822
3586
root 15.2629 17.7797 -6.27156 721.56 -32.2513 3.97627
lowerback 11.6105 -5.89846 -5.34181
upperback 0.992818 -8.29405 5.67242
thorax -3.79663 -4.05259 10.1959
lowerneck 7.87866 -16.1414 -16.0246
upperneck 38.3777 -29.1694 8.6339
head 16.6027 -14.5582 2.2184
rclavicle 5.84427e-014 -3.49861e-014
rhumerus -47.5795 -29.823 -53.4518
rradius 35.3888
rwrist 0.252744
rhand -17.2892 7.26549
rfingers 7.12502
rthumb 8.95631 -22.5244
lclavicle 5.84427e-014 -3.49861e-014
lhumerus -38.3676 8.09663 77.5766
lradius 43.6224
lwrist -2.76346
lhand -13.6642 30.3099
lfingers 7.12502
lthumb 12.4529 59.9189
rfemur -10.1169 13.8695 20.8307
rtibia 32.1759
rfoot -20.892 11.2799
rtoes 17.1885
lfemur -18.3557 -6.34274 -17.8011
ltibia 20.04
lfoot -8.78074 -23.0387
ltoes -10.7372
3587
root 15.2792 17.8146 -6.35699 721.682 -32.0765 3.89499
lowerback 11.81 -5.95821 -5.18772
upperback 0.903023 -8.35375 5.76615
thorax -3.9973 -4.07019 10.2557
lowerneck 7.93349 -16.1142 -16.1878
upperneck 38.3398 -29.2328 8.8596
head 16.6739 -14.5884 2.31561
rclavicle 6.12257e-014 -3.65764e-014
rhumerus -47.4235 -29.5357 -53.6486
rradius 35.4777
rwrist 0.437244
rhand -17.3011 7.41788
rfingers 7.12502
rthumb 8.94478 -22.3725
lclavicle 6.12257e-014 -3.65764e-014
lhumerus -38.149 7.88963 77.7209
lradius 43.3224
lwrist -2.73611
lhand -13.2105 30.3224
lfingers 7.12502
lthumb 12.8903 59.9043
rfemur -10.4966 14.1783 20.9659
rtibia 32.1371
rfoot -20.4047 10.8398
rtoes 17.7323
lfemur -18.7446 -6.0462 -17.7318
ltibia 20.3322
lfoot -9.9229 -21.4158
ltoes -15.0808
3588
root 15.2967 17.8561 -6.43084 721.852 -32.0383 3.79487
lowerback 11.8436 -5.98327 -4.97045
upperback 0.906367 -8.35665 5.82451
thorax -4.03388 -4.07312 10.2018
lowerneck 7.72166 -16.2193 -15.9695
upperneck 38.3347 -29.3801 8.88124
head 16.7031 -14.6027 2.24638
rclavicle 7.43455e-014 1.27222e-014
rhumerus -47.1521 -29.4327 -53.9171
rradius 35.5355
rwrist 0.641931
rhand -16.9722 7.82719
rfingers 7.12502
rthumb 9.26213 -21.9494
lclavicle 7.43455e-014 1.27222e-014
lhumerus -37.7097 7.84224 77.7636
lradius 42.8562
lwrist -2.92578
lhand -12.3267 29.9268
lfingers 7.12502
lthumb 13.7422 59.453
rfemur -10.8543 14.0401 21.0143
rtibia 31.9658
rfoot -19.9832 10.8957
rtoes 18.1088
lfemur -19.2452 -6.05806 -17.6231
ltibia 20.9641
lfoot -10.7842 -19.2796
ltoes -15.8444
